<?xml version="1.0" encoding="utf-8"?>
<!-- Generator: Adobe Illustrator 23.1.1, SVG Export Plug-In . SVG Version: 6.00 Build 0)  -->
<svg version="1.1" id="Layer_1" xmlns="http://www.w3.org/2000/svg" xmlns:xlink="http://www.w3.org/1999/xlink" x="0px" y="0px"
	 viewBox="0 0 80.72 123.45" style="enable-background:new 0 0 80.72 123.45;" xml:space="preserve">
<style type="text/css">
	.st0{fill:#FFFFFF;}
	.st1{fill:#FFFFFF;stroke:#FFFFFFF;stroke-miterlimit:10;}
	.st2{fill:#225e2b;;stroke:#FFFFFF;stroke-miterlimit:10;}
</style>
<circle class="st0" cx="48.05" cy="13.77" r="3.3"/>
<path class="st2" d="M67.38,102.06c-4.34-7.58-5.7-12.38-8.29-30.42c-1.01-7.01-1.69-26.96,0.95-32.41l0.71-6.05c0-2.21,1.79-4,4-4h11.97
	c-7.21-10.32-13.27-16.15-17.2-19.33c-4-4.07-9.56-6.61-15.72-6.61c-12.16,0-20.66,7.38-22.02,22.02L21.2,39.64
	c2.3,8.5,1.01,19.13-0.41,29.91c-0.99,7.52-2.04,14.05-3.68,20.23c-1.83,6.87-4.93,13.34-9.1,19.1l-0.41,0.57
	c-0.94,1.3-1.4,2.92-1.13,4.5c0.69,4.07,3.3,6.12,7.18,6.12h51.6c4.58,0,8.08-4.08,7.4-8.6L67.38,102.06z"/>
<path class="st1" d="M60.91,40.65H19.98c-1.5,0-2.72-1.22-2.72-2.72v-1.95c0-1.5,1.22-2.72,2.72-2.72h40.94
	c1.5,0,2.72,1.22,2.72,2.72v1.95C63.64,39.43,62.42,40.65,60.91,40.65z"/>
<path class="st1" d="M73.58,120.06H5.28c-1.36,0-2.46-1.1-2.46-2.46v-3.55c0-1.36,1.1-2.46,2.46-2.46h68.3
	c1.36,0,2.46,1.1,2.46,2.46v3.55C76.04,118.96,74.94,120.06,73.58,120.06z"/>
<circle class="st0" cx="48.05" cy="13.77" r="3.15"/>
</svg>
